ffmpeg version N-102852-g758e2da289 Copyright (c) 2000-2021 the FFmpeg developers
  built with gcc 7 (Ubuntu 7.5.0-3ubuntu1~18.04)
  configuration: --prefix=/home/aleksandr/ffmpeg_debug_build --pkg-config-flags=--static --extra-cflags=-I/home/aleksandr/ffmpeg_debug_build/include --extra-cflags=-g --extra-ldflags=-L/home/aleksandr/ffmpeg_debug_build/lib --extra-ldflags=-g --extra-libs='-lpthread -lm' --bindir=/home/aleksandr/bin_debug --enable-gpl --enable-libass --enable-libfdk-aac --enable-libfreetype --enable-libmp3lame --enable-libopus --enable-libtheora --enable-libvorbis --enable-libvpx --enable-libx264 --enable-libx265 --enable-debug --enable-nonfree
  libavutil      57.  0.100 / 57.  0.100
  libavcodec     59.  3.101 / 59.  3.101
  libavformat    59.  4.100 / 59.  4.100
  libavdevice    59.  0.100 / 59.  0.100
  libavfilter     8.  0.103 /  8.  0.103
  libswscale      6.  0.100 /  6.  0.100
  libswresample   4.  0.100 /  4.  0.100
  libpostproc    56.  0.100 / 56.  0.100
Input #0, matroska,webm, from '../.././Samples/29_VP8_1280x720_30_068fps.webm':
  Metadata:
    encoder         : libwebm-0.2.1.0
  Duration: 00:00:16.67, start: 0.000000, bitrate: 873 kb/s
  Stream #0:0(eng): Video: vp8, yuv420p(progressive), 1280x720, SAR 1:1 DAR 16:9, 30 fps, 30 tbr, 1k tbn (default)
Stream mapping:
  Stream #0:0 -> #0:0 (vp8 (native) -> h264 (libx264))
Press [q] to stop, [?] for help
[libx264 @ 0x5556dc554b40] using SAR=1/1
[libx264 @ 0x5556dc554b40] using cpu capabilities: MMX2 SSE2Fast SSSE3 SSE4.2 AVX FMA3 BMI2 AVX2
[libx264 @ 0x5556dc554b40] profile High, level 3.1
[libx264 @ 0x5556dc554b40] 264 - core 152 r2854 e9a5903 - H.264/MPEG-4 AVC codec - Copyleft 2003-2017 - http://www.videolan.org/x264.html - options: cabac=1 ref=3 deblock=1:0:0 analyse=0x3:0x113 me=hex subme=7 psy=1 psy_rd=1.00:0.00 mixed_ref=1 me_range=16 chroma_me=1 trellis=1 8x8dct=1 cqm=0 deadzone=21,11 fast_pskip=1 chroma_qp_offset=-2 threads=6 lookahead_threads=1 sliced_threads=0 nr=0 decimate=1 interlaced=0 bluray_compat=0 constrained_intra=0 bframes=3 b_pyramid=2 b_adapt=1 b_bias=0 direct=1 weightb=1 open_gop=0 weightp=2 keyint=250 keyint_min=25 scenecut=40 intra_refresh=0 rc_lookahead=40 rc=crf mbtree=1 crf=23.0 qcomp=0.60 qpmin=0 qpmax=69 qpstep=4 ip_ratio=1.40 aq=1:1.00
Output #0, mov, to '/home/aleksandr/Debug-release_tests/Debug/Samples/29_VP8_1280x720_30_068fps.webm_tc/output_tc7.mov':
  Metadata:
    encoder         : Lavf59.4.100
  Stream #0:0(eng): Video: h264 (avc1 / 0x31637661), yuv420p(tv, bt470bg/unknown/unknown, progressive), 1280x720 [SAR 1:1 DAR 16:9], q=2-31, 30 fps, 15360 tbn (default)
    Metadata:
      encoder         : Lavc59.3.101 libx264
    Side data:
      cpb: bitrate max/min/avg: 0/0/0 buffer size: 0 vbv_delay: N/A
frame=    1 fps=0.0 q=0.0 size=       0kB time=00:00:00.00 bitrate=N/A speed=   0x    frame=   56 fps=0.0 q=29.0 size=       0kB time=00:00:00.10 bitrate=   2.9kbits/s speed=0.193x    frame=   79 fps= 76 q=29.0 size=     512kB time=00:00:00.86 bitrate=4839.5kbits/s speed=0.837x    frame=  101 fps= 64 q=29.0 size=     768kB time=00:00:01.60 bitrate=3932.2kbits/s speed=1.01x    frame=  119 fps= 55 q=29.0 size=    1024kB time=00:00:02.20 bitrate=3813.0kbits/s speed=1.02x    frame=  132 fps= 50 q=29.0 size=    1280kB time=00:00:02.63 bitrate=3981.9kbits/s speed=0.988x    frame=  144 fps= 45 q=29.0 size=    1536kB time=00:00:03.03 bitrate=4148.2kbits/s speed=0.957x    frame=  163 fps= 44 q=29.0 size=    1792kB time=00:00:03.66 bitrate=4003.7kbits/s speed=0.995x    frame=  184 fps= 44 q=29.0 size=    2048kB time=00:00:04.36 bitrate=3842.1kbits/s speed=1.04x    frame=  202 fps= 42 q=29.0 size=    2304kB time=00:00:04.96 bitrate=3800.2kbits/s speed=1.04x    frame=  216 fps= 41 q=29.0 size=    2560kB time=00:00:05.43 bitrate=3859.8kbits/s speed=1.03x    frame=  230 fps= 40 q=29.0 size=    2816kB time=00:00:05.90 bitrate=3910.0kbits/s speed=1.02x    frame=  245 fps= 39 q=29.0 size=    3072kB time=00:00:06.40 bitrate=3932.2kbits/s speed=1.02x    frame=  268 fps= 39 q=29.0 size=    3328kB time=00:00:07.16 bitrate=3804.1kbits/s speed=1.06x    frame=  291 fps= 40 q=29.0 size=    3840kB time=00:00:07.93 bitrate=3965.2kbits/s speed=1.08x    frame=  315 fps= 40 q=29.0 size=    4096kB time=00:00:08.73 bitrate=3842.1kbits/s speed= 1.1x    frame=  329 fps= 39 q=29.0 size=    4352kB time=00:00:09.20 bitrate=3875.2kbits/s speed=1.09x    frame=  343 fps= 38 q=29.0 size=    4608kB time=00:00:09.66 bitrate=3905.0kbits/s speed=1.08x    frame=  359 fps= 38 q=29.0 size=    4864kB time=00:00:10.20 bitrate=3906.5kbits/s speed=1.08x    frame=  381 fps= 38 q=29.0 size=    5376kB time=00:00:10.93 bitrate=4028.1kbits/s speed= 1.1x    frame=  403 fps= 39 q=29.0 size=    5632kB time=00:00:11.66 bitrate=3954.6kbits/s speed=1.12x    frame=  420 fps= 38 q=29.0 size=    5888kB time=00:00:12.23 bitrate=3942.9kbits/s speed=1.12x    frame=  434 fps= 38 q=29.0 size=    6144kB time=00:00:12.70 bitrate=3963.1kbits/s speed= 1.1x    frame=  450 fps= 37 q=29.0 size=    6656kB time=00:00:13.23 bitrate=4120.4kbits/s speed= 1.1x    frame=  464 fps= 37 q=29.0 size=    6656kB time=00:00:13.70 bitrate=3980.0kbits/s speed=1.09x    frame=  479 fps= 37 q=29.0 size=    6912kB time=00:00:14.20 bitrate=3987.5kbits/s speed=1.09x    frame=  492 fps= 36 q=29.0 size=    7168kB time=00:00:14.63 bitrate=4012.8kbits/s speed=1.08x    frame=  500 fps= 34 q=-1.0 Lsize=    8417kB time=00:00:16.56 bitrate=4162.3kbits/s speed=1.12x    
video:8413kB audio:0kB subtitle:0kB other streams:0kB global headers:0kB muxing overhead: 0.054534%
[libx264 @ 0x5556dc554b40] frame I:4     Avg QP:23.74  size: 74342
[libx264 @ 0x5556dc554b40] frame P:401   Avg QP:27.00  size: 19490
[libx264 @ 0x5556dc554b40] frame B:95    Avg QP:30.18  size:  5275
[libx264 @ 0x5556dc554b40] consecutive B-frames: 68.0% 18.4%  4.8%  8.8%
[libx264 @ 0x5556dc554b40] mb I  I16..4:  1.2% 54.7% 44.1%
[libx264 @ 0x5556dc554b40] mb P  I16..4:  0.5%  3.5%  1.1%  P16..4: 48.2% 15.5%  6.6%  0.0%  0.0%    skip:24.7%
[libx264 @ 0x5556dc554b40] mb B  I16..4:  0.1%  0.5%  0.2%  B16..8: 61.2%  5.1%  1.1%  direct: 0.7%  skip:31.0%  L0:58.9% L1:37.2% BI: 4.0%
[libx264 @ 0x5556dc554b40] 8x8 transform intra:66.4% inter:76.7%
[libx264 @ 0x5556dc554b40] coded y,uvDC,uvAC intra: 89.2% 42.5% 16.3% inter: 26.4% 4.3% 0.2%
[libx264 @ 0x5556dc554b40] i16 v,h,dc,p:  2% 89%  4%  5%
[libx264 @ 0x5556dc554b40] i8 v,h,dc,ddl,ddr,vr,hd,vl,hu:  5% 51% 10%  3%  4%  2% 11%  3% 11%
[libx264 @ 0x5556dc554b40] i4 v,h,dc,ddl,ddr,vr,hd,vl,hu:  7% 55%  9%  3%  4%  2% 10%  2%  8%
[libx264 @ 0x5556dc554b40] i8c dc,h,v,p: 68% 18% 10%  4%
[libx264 @ 0x5556dc554b40] Weighted P-Frames: Y:0.0% UV:0.0%
[libx264 @ 0x5556dc554b40] ref P L0: 68.2% 25.3%  4.9%  1.6%
[libx264 @ 0x5556dc554b40] ref B L0: 97.4%  2.4%  0.2%
[libx264 @ 0x5556dc554b40] ref B L1: 99.5%  0.5%
[libx264 @ 0x5556dc554b40] kb/s:4134.75
	Command being timed: "/home/aleksandr/bin_debug/ffmpeg -i ../.././Samples/29_VP8_1280x720_30_068fps.webm -c:v libx264 -f mov /home/aleksandr/Debug-release_tests/Debug/Samples/29_VP8_1280x720_30_068fps.webm_tc/output_tc7.mov"
	User time (seconds): 57.36
	System time (seconds): 0.19
	Percent of CPU this job got: 384%
	Elapsed (wall clock) time (h:mm:ss or m:ss): 0:14.95
	Average shared text size (kbytes): 0
	Average unshared data size (kbytes): 0
	Average stack size (kbytes): 0
	Average total size (kbytes): 0
	Maximum resident set size (kbytes): 262380
	Average resident set size (kbytes): 0
	Major (requiring I/O) page faults: 3
	Minor (reclaiming a frame) page faults: 20863
	Voluntary context switches: 7032
	Involuntary context switches: 4667
	Swaps: 0
	File system inputs: 728
	File system outputs: 16856
	Socket messages sent: 0
	Socket messages received: 0
	Signals delivered: 0
	Page size (bytes): 4096
	Exit status: 0
